<?xml version="1.0"?>
<svg xmlns="http://www.w3.org/2000/svg" xmlns:xlink="http://www.w3.org/1999/xlink" version="1.1" id="Layer_1" x="0px" y="0px" viewBox="0 0 502 502" style="enable-background:new 0 0 502 502;" xml:space="preserve" width="512px" height="512px"><g><g>
	<g>
		<g>
			<path d="M142.963,115.33c-3.906-3.905-10.238-3.905-14.143,0c-3.905,3.906-3.905,10.238,0,14.143l45.063,45.063     c1.952,1.953,4.512,2.929,7.071,2.929c2.559,0,5.119-0.976,7.072-2.929c3.905-3.906,3.905-10.238,0-14.143L142.963,115.33z" data-original="#000000" class="active-path" data-old_color="#000000" fill="#29AEB0"/>
			<path d="M226.357,198.724l-13.468-13.468c-3.906-3.905-10.238-3.906-14.143,0c-3.905,3.906-3.905,10.238,0,14.143l13.468,13.468     c1.952,1.953,4.512,2.929,7.071,2.929c2.559,0,5.118-0.976,7.072-2.929C230.262,208.961,230.262,202.629,226.357,198.724z" data-original="#000000" class="active-path" data-old_color="#000000" fill="#29AEB0"/>
			<path d="M271.083,482h-43.87v-11c0-5.523-4.477-10-10-10s-10,4.477-10,10v11h-43.87c-5.523,0-10,4.477-10,10s4.477,10,10,10     h107.74c5.523,0,10-4.477,10-10S276.606,482,271.083,482z" data-original="#000000" class="active-path" data-old_color="#000000" fill="#29AEB0"/>
			<path d="M375.714,0c-44.974,0-82.144,34.033-87.123,77.697H48.59c-4.044,0-7.691,2.437-9.239,6.173     c-1.548,3.736-0.692,8.038,2.167,10.898l165.694,165.694v174.953c0,5.523,4.477,10,10,10c5.523,0,10-4.477,10-10V260.462     l99.834-99.834c14.338,9.562,31.299,14.765,48.667,14.765c48.356,0,87.697-39.341,87.697-87.697C463.41,39.34,424.07,0,375.714,0     z M217.213,242.178L72.732,97.697h288.962L217.213,242.178z M375.714,155.394c-12.06,0-23.87-3.238-34.174-9.258l14.239-14.239     l37.342-37.106c2.874-2.855,3.741-7.161,2.197-10.906s-5.195-6.188-9.245-6.188h-0.237h-77.082     C313.602,45.093,341.783,20,375.714,20c37.328,0,67.697,30.369,67.697,67.697C443.411,125.025,413.042,155.394,375.714,155.394z" data-original="#000000" class="active-path" data-old_color="#000000" fill="#29AEB0"/>
		</g>
	</g>
</g></g> </svg>
